<svg width="20" height="20" viewBox="0 0 20 20" fill="none" xmlns="http://www.w3.org/2000/svg">
<path d="M6.66667 8.33268H13.3333M6.66667 11.666H13.3333M6.66667 14.9993H10M6.66667 3.33268C6.66667 4.25316 7.41286 4.99935 8.33333 4.99935H11.6667C12.5871 4.99935 13.3333 4.25316 13.3333 3.33268M6.66667 3.33268C6.66667 2.41221 7.41286 1.66602 8.33333 1.66602H11.6667C12.5871 1.66602 13.3333 2.41221 13.3333 3.33268M6.66667 3.33268H5.83333C3.99238 3.33268 2.5 4.82507 2.5 6.66602V14.9993C2.5 16.8403 3.99238 18.3327 5.83333 18.3327H14.1667C16.0076 18.3327 17.5 16.8403 17.5 14.9993V6.66602C17.5 4.82507 16.0076 3.33268 14.1667 3.33268H13.3333" stroke="#81889C" stroke-width="1.5" stroke-linecap="round"/>
</svg>
