<svg width="20" height="20" viewBox="0 0 20 20" fill="none" xmlns="http://www.w3.org/2000/svg">
<ellipse cx="8.33333" cy="14.5833" rx="5.83333" ry="2.91667" stroke="#81889C" stroke-width="1.5" stroke-linejoin="round"/>
<circle cx="8.33333" cy="5.83333" r="3.33333" stroke="#81889C" stroke-width="1.5" stroke-linejoin="round"/>
<path fill-rule="evenodd" clip-rule="evenodd" d="M12.6167 8.4128C12.3089 8.92281 11.9127 9.37342 11.4492 9.74334C11.7786 9.85571 12.1318 9.91668 12.4992 9.91668C14.2941 9.91668 15.7492 8.4616 15.7492 6.66668C15.7492 4.94415 14.4091 3.5346 12.7146 3.42371C12.9961 3.93447 13.1908 4.49973 13.2791 5.09963C13.8541 5.38639 14.2492 5.9804 14.2492 6.66668C14.2492 7.5937 13.5284 8.35237 12.6167 8.4128Z" fill="#81889C"/>
<path fill-rule="evenodd" clip-rule="evenodd" d="M15.3239 16.2467C15.6527 15.731 15.8331 15.1701 15.8331 14.5834C15.8331 14.5537 15.8326 14.524 15.8317 14.4945C16.1841 14.3391 16.43 14.1749 16.5805 14.0267C16.7401 13.8694 16.7497 13.7764 16.7497 13.75C16.7497 13.7236 16.7401 13.6306 16.5805 13.4734C16.4182 13.3136 16.145 13.1351 15.7468 12.9692C15.5895 12.9037 15.4183 12.8424 15.2346 12.7862C14.716 12.0434 13.8855 11.4012 12.8438 10.9213C14.1671 10.9566 15.3877 11.1946 16.3237 11.5846C16.8304 11.7957 17.2894 12.0661 17.6332 12.4048C17.9796 12.7461 18.2497 13.2011 18.2497 13.75C18.2497 14.2989 17.9796 14.754 17.6332 15.0952C17.2894 15.4339 16.8304 15.7044 16.3237 15.9155C16.0186 16.0426 15.6833 16.1536 15.3239 16.2467Z" fill="#81889C"/>
</svg>
